<?xml version="1.0" encoding="UTF-8"?>
<svg xmlns="http://www.w3.org/2000/svg" viewBox="0 0 1500 1024"
     width="1500" height="1024" font-family='"JetBrains Mono", ui-monospace, SFMono-Regular, Menlo, Consolas, monospace'>
  <rect width="100%" height="100%" fill="#07090d"/>
  <defs>
  <pattern id="hatch" width="12" height="12" patternUnits="userSpaceOnUse" patternTransform="rotate(135)">
    <line x1="0" y1="0" x2="0" y2="12" stroke="white" stroke-width="6"/>
  </pattern>
  <mask id="hatch-mask">
    <rect x="0" y="0" width="100%" height="100%" fill="url(#hatch)"/>
  </mask>
</defs>
  <g class="chrome">
  <rect x="0" y="0" width="1500" height="100%" rx="14" ry="14" fill="#0e1218" stroke="rgba(255,255,255,0.06)" stroke-width="1"/>
  <line x1="0" y1="45" x2="1500" y2="45" stroke="rgba(255,255,255,0.05)" stroke-width="1"/>
  <circle cx="26" cy="22" r="6" fill="#ff5f57"/>
  <circle cx="46" cy="22" r="6" fill="#febc2e"/>
  <circle cx="66" cy="22" r="6" fill="#28c840"/>
  <text x="750" y="27" text-anchor="middle" fill="#8b95a3" font-size="13.5" font-family='"JetBrains Mono", ui-monospace, SFMono-Regular, Menlo, Consolas, monospace'>btop — <tspan font-weight='500' fill='#cdd6e1'>8enji.dashboard</tspan></text>
</g>
  <g class="panel" data-label="me">
  <rect x="14" y="59" width="678" height="426" rx="9" ry="9"
        fill="rgba(255,255,255,0.012)" stroke="rgba(148,163,184,0.10)" stroke-width="1"/>
  <text x="36" y="87" fill="#5a6473" font-size="11.5"
        font-family='"JetBrains Mono", ui-monospace, SFMono-Regular, Menlo, Consolas, monospace' font-weight="600" letter-spacing="1.6"
        text-transform="uppercase">ME</text>
  <text x="670" y="87" text-anchor="end" fill="#3f4753"
        font-size="11.5" font-family='"JetBrains Mono", ui-monospace, SFMono-Regular, Menlo, Consolas, monospace' font-weight="500"
        letter-spacing="1.4" text-transform="uppercase">/etc/8enji.png</text>
</g><text font-family='"JetBrains Mono", ui-monospace, SFMono-Regular, Menlo, Consolas, monospace' font-size="8" fill="#8b95a3" xml:space="preserve" font-weight="500" y="115"><tspan x="36" dy="0">                ;:cloolc;,'.</tspan><tspan x="36" dy="8.4">            'cdkOOOkkxxxxdolc;'.</tspan><tspan x="36" dy="8.4">         .;okOOOOOOOOOkkxxxxddol:,.</tspan><tspan x="36" dy="8.4">       .;dkOOOOOOOOOOOOOkkxxxxddool:.</tspan><tspan x="36" dy="8.4">     .,lxOOOOOOOOOOOOOOOOOkkxxxxddooll;.</tspan><tspan x="36" dy="8.4">    .;dOOOOOOOOOOOOOOOOOOOOOkkxxxxdoool:.</tspan><tspan x="36" dy="8.4">   .:xOOOOOOOOOOOOOOOOOOOOOOOOkkxxxdoooo:.</tspan><tspan x="36" dy="8.4">  .;xOOOOOOOOOOOOOOOOOOOOOOOOOkkkxxxdooool.</tspan><tspan x="36" dy="8.4">  ,oOOOOOOOOOO0K0OOOOOO0K0OOOOkkkxxxdoooool</tspan><tspan x="36" dy="8.4"> .lOOOOOOOOOOKWMWXOOOOXMMWKOOOkkkxxxdooooooc</tspan><tspan x="36" dy="8.4"> .lOOOOOOOOOOOXMMNOOOOXMMNOOOOkkkxxxxdooollc</tspan><tspan x="36" dy="8.4"> .cOOOOOOOOOOOOKK0OOOOO0KKOOOOkkkxxxxdoollll</tspan><tspan x="36" dy="8.4">  ;kOOOOOOOOOOOOOOOOOOOOOOOOOkkkxxxxdoollll;</tspan><tspan x="36" dy="8.4">  .lOOOOO0K0OOOOOOOOOOOOOOOO0K0OOkkxxxdoolll</tspan><tspan x="36" dy="8.4">   ,xOOOOXMW0kkOOOOOOOOOOOOXMMNOOOkkxxxdooo:</tspan><tspan x="36" dy="8.4">   .cOOOO0NMWNXKKKKKKKKKXNNWMMKOOOkkkxxxxdo,</tspan><tspan x="36" dy="8.4">    .ckOOOO0XWMMMMMMMMMMMMMWNKOOkkkxxxxxxo:.</tspan><tspan x="36" dy="8.4">     .;xOOOOOO0KXNWWWWWWNXK0OOkkkxxxxxxxd:.</tspan><tspan x="36" dy="8.4">       'lkOOOOOOOOO0000OOOOOOkkkxxxxxxxo,.</tspan><tspan x="36" dy="8.4">         .:dkOOOOOOOOOOOOOOOkkkxxxxxdo;.</tspan><tspan x="36" dy="8.4">           .,cdxkOOOOOOOOOOkkxxxxddl;.</tspan><tspan x="36" dy="8.4">              .';clddxxkkkxxxddlc;'.</tspan><tspan x="36" dy="8.4">                   ..',;:::;,'..</tspan></text><text x="394" y="203" fill="#c8a2ff" font-size="13" font-family='"JetBrains Mono", ui-monospace, SFMono-Regular, Menlo, Consolas, monospace'>host</text>
<text x="484" y="203" fill="#cdd6e1" font-size="13" font-family='"JetBrains Mono", ui-monospace, SFMono-Regular, Menlo, Consolas, monospace'>8enji<tspan fill="#5a6473">@</tspan>dashboard</text>
<text x="394" y="225" fill="#c8a2ff" font-size="13" font-family='"JetBrains Mono", ui-monospace, SFMono-Regular, Menlo, Consolas, monospace'>os</text>
<text x="484" y="225" fill="#cdd6e1" font-size="13" font-family='"JetBrains Mono", ui-monospace, SFMono-Regular, Menlo, Consolas, monospace'>macOS 15.4 · arm64</text>
<text x="394" y="247" fill="#c8a2ff" font-size="13" font-family='"JetBrains Mono", ui-monospace, SFMono-Regular, Menlo, Consolas, monospace'>shell</text>
<text x="484" y="247" fill="#cdd6e1" font-size="13" font-family='"JetBrains Mono", ui-monospace, SFMono-Regular, Menlo, Consolas, monospace'>zsh 5.9</text>
<text x="394" y="269" fill="#c8a2ff" font-size="13" font-family='"JetBrains Mono", ui-monospace, SFMono-Regular, Menlo, Consolas, monospace'>editor</text>
<text x="484" y="269" fill="#cdd6e1" font-size="13" font-family='"JetBrains Mono", ui-monospace, SFMono-Regular, Menlo, Consolas, monospace'>nvim · 0.10.2</text>
<text x="394" y="291" fill="#c8a2ff" font-size="13" font-family='"JetBrains Mono", ui-monospace, SFMono-Regular, Menlo, Consolas, monospace'>wm</text>
<text x="484" y="291" fill="#cdd6e1" font-size="13" font-family='"JetBrains Mono", ui-monospace, SFMono-Regular, Menlo, Consolas, monospace'>aerospace</text>
<text x="394" y="313" fill="#c8a2ff" font-size="13" font-family='"JetBrains Mono", ui-monospace, SFMono-Regular, Menlo, Consolas, monospace'>theme</text>
<text x="484" y="313" fill="#cdd6e1" font-size="13" font-family='"JetBrains Mono", ui-monospace, SFMono-Regular, Menlo, Consolas, monospace'>tokyonight-storm</text>
<text x="394" y="335" fill="#c8a2ff" font-size="13" font-family='"JetBrains Mono", ui-monospace, SFMono-Regular, Menlo, Consolas, monospace'>uptime</text>
<text x="484" y="335" fill="#cdd6e1" font-size="13" font-family='"JetBrains Mono", ui-monospace, SFMono-Regular, Menlo, Consolas, monospace'>9y 236d</text><line x1="36" y1="449" x2="670" y2="449" stroke="rgba(148,163,184,0.08)" stroke-width="1" stroke-dasharray="3 3"/><text x="36" y="463" fill="#5a6473" font-size="11.5" font-family='"JetBrains Mono", ui-monospace, SFMono-Regular, Menlo, Consolas, monospace' letter-spacing="1.8" text-transform="uppercase">8enji <tspan fill="#3f4753">·</tspan> bencharest.com</text><text x="670" y="463" text-anchor="end" fill="#b6e04f" font-size="11.5" font-family='"JetBrains Mono", ui-monospace, SFMono-Regular, Menlo, Consolas, monospace' letter-spacing="1.8" text-transform="uppercase">// online</text>
  <g class="panel" data-label="languages">
  <rect x="706" y="59" width="780" height="426" rx="9" ry="9"
        fill="rgba(255,255,255,0.012)" stroke="rgba(148,163,184,0.10)" stroke-width="1"/>
  <text x="728" y="87" fill="#5a6473" font-size="11.5"
        font-family='"JetBrains Mono", ui-monospace, SFMono-Regular, Menlo, Consolas, monospace' font-weight="600" letter-spacing="1.6"
        text-transform="uppercase">LANGUAGES</text>
  <text x="1464" y="87" text-anchor="end" fill="#3f4753"
        font-size="11.5" font-family='"JetBrains Mono", ui-monospace, SFMono-Regular, Menlo, Consolas, monospace' font-weight="500"
        letter-spacing="1.4" text-transform="uppercase">last 12mo</text>
</g><text x="728" y="148.83333333333334" fill="#cdd6e1" font-size="13" font-family='"JetBrains Mono", ui-monospace, SFMono-Regular, Menlo, Consolas, monospace'>typescript</text><rect x="830" y="136.83333333333334" width="576" height="14" rx="3" ry="3" fill="rgba(255,255,255,0.03)"/><rect x="830" y="136.83333333333334" width="576" height="14" rx="3" ry="3" fill="#5fb7ff" fill-opacity="0.22" mask="url(#hatch-mask)"/><rect x="830" y="136.83333333333334" width="241" height="14" rx="3" ry="3" fill="#5fb7ff"/><text x="1464" y="148.83333333333334" text-anchor="end" fill="#8b95a3" font-size="13" font-family='"JetBrains Mono", ui-monospace, SFMono-Regular, Menlo, Consolas, monospace' font-variant-numeric="tabular-nums">42%</text><text x="728" y="206.5" fill="#cdd6e1" font-size="13" font-family='"JetBrains Mono", ui-monospace, SFMono-Regular, Menlo, Consolas, monospace'>python</text><rect x="830" y="194.5" width="576" height="14" rx="3" ry="3" fill="rgba(255,255,255,0.03)"/><rect x="830" y="194.5" width="576" height="14" rx="3" ry="3" fill="#c8a2ff" fill-opacity="0.22" mask="url(#hatch-mask)"/><rect x="830" y="194.5" width="132" height="14" rx="3" ry="3" fill="#c8a2ff"/><text x="1464" y="206.5" text-anchor="end" fill="#8b95a3" font-size="13" font-family='"JetBrains Mono", ui-monospace, SFMono-Regular, Menlo, Consolas, monospace' font-variant-numeric="tabular-nums">23%</text><text x="728" y="264.16666666666663" fill="#cdd6e1" font-size="13" font-family='"JetBrains Mono", ui-monospace, SFMono-Regular, Menlo, Consolas, monospace'>go</text><rect x="830" y="252.16666666666663" width="576" height="14" rx="3" ry="3" fill="rgba(255,255,255,0.03)"/><rect x="830" y="252.16666666666663" width="576" height="14" rx="3" ry="3" fill="#b6e04f" fill-opacity="0.22" mask="url(#hatch-mask)"/><rect x="830" y="252.16666666666663" width="80" height="14" rx="3" ry="3" fill="#b6e04f"/><text x="1464" y="264.16666666666663" text-anchor="end" fill="#8b95a3" font-size="13" font-family='"JetBrains Mono", ui-monospace, SFMono-Regular, Menlo, Consolas, monospace' font-variant-numeric="tabular-nums">14%</text><text x="728" y="321.8333333333333" fill="#cdd6e1" font-size="13" font-family='"JetBrains Mono", ui-monospace, SFMono-Regular, Menlo, Consolas, monospace'>rust</text><rect x="830" y="309.8333333333333" width="576" height="14" rx="3" ry="3" fill="rgba(255,255,255,0.03)"/><rect x="830" y="309.8333333333333" width="576" height="14" rx="3" ry="3" fill="#f1c47a" fill-opacity="0.22" mask="url(#hatch-mask)"/><rect x="830" y="309.8333333333333" width="63" height="14" rx="3" ry="3" fill="#f1c47a"/><text x="1464" y="321.8333333333333" text-anchor="end" fill="#8b95a3" font-size="13" font-family='"JetBrains Mono", ui-monospace, SFMono-Regular, Menlo, Consolas, monospace' font-variant-numeric="tabular-nums">11%</text><text x="728" y="379.49999999999994" fill="#cdd6e1" font-size="13" font-family='"JetBrains Mono", ui-monospace, SFMono-Regular, Menlo, Consolas, monospace'>lua</text><rect x="830" y="367.49999999999994" width="576" height="14" rx="3" ry="3" fill="rgba(255,255,255,0.03)"/><rect x="830" y="367.49999999999994" width="576" height="14" rx="3" ry="3" fill="#ee557d" fill-opacity="0.22" mask="url(#hatch-mask)"/><rect x="830" y="367.49999999999994" width="34" height="14" rx="3" ry="3" fill="#ee557d"/><text x="1464" y="379.49999999999994" text-anchor="end" fill="#8b95a3" font-size="13" font-family='"JetBrains Mono", ui-monospace, SFMono-Regular, Menlo, Consolas, monospace' font-variant-numeric="tabular-nums">6%</text><text x="728" y="437.16666666666663" fill="#cdd6e1" font-size="13" font-family='"JetBrains Mono", ui-monospace, SFMono-Regular, Menlo, Consolas, monospace'>other</text><rect x="830" y="425.16666666666663" width="576" height="14" rx="3" ry="3" fill="rgba(255,255,255,0.03)"/><rect x="830" y="425.16666666666663" width="576" height="14" rx="3" ry="3" fill="#ee557d" fill-opacity="0.22" mask="url(#hatch-mask)"/><rect x="830" y="425.16666666666663" width="23" height="14" rx="3" ry="3" fill="#ee557d"/><text x="1464" y="437.16666666666663" text-anchor="end" fill="#8b95a3" font-size="13" font-family='"JetBrains Mono", ui-monospace, SFMono-Regular, Menlo, Consolas, monospace' font-variant-numeric="tabular-nums">4%</text>
  <g class="panel" data-label="activity">
  <rect x="14" y="499" width="678" height="354" rx="9" ry="9"
        fill="rgba(255,255,255,0.012)" stroke="rgba(148,163,184,0.10)" stroke-width="1"/>
  <text x="36" y="527" fill="#5a6473" font-size="11.5"
        font-family='"JetBrains Mono", ui-monospace, SFMono-Regular, Menlo, Consolas, monospace' font-weight="600" letter-spacing="1.6"
        text-transform="uppercase">ACTIVITY</text>
  <text x="670" y="527" text-anchor="end" fill="#3f4753"
        font-size="11.5" font-family='"JetBrains Mono", ui-monospace, SFMono-Regular, Menlo, Consolas, monospace' font-weight="500"
        letter-spacing="1.4" text-transform="uppercase">peak 92/day · streak 142d</text>
</g><text x="36" y="559" fill="#b6e04f" font-size="13" font-family='"JetBrains Mono", ui-monospace, SFMono-Regular, Menlo, Consolas, monospace'>commits/day · last 60 days</text><text x="670" y="559" text-anchor="end" fill="#5a6473" font-size="11.5" font-family='"JetBrains Mono", ui-monospace, SFMono-Regular, Menlo, Consolas, monospace' letter-spacing="1.1">avg 14.3</text><rect class="bar-bar" x="36.00" y="711.65" width="6.63" height="93.35" rx="2" ry="2" fill="#b6e04f"/><rect class="bar-bar" x="46.63" y="677.26" width="6.63" height="127.74" rx="2" ry="2" fill="#b6e04f"/><rect class="bar-bar" x="57.27" y="704.28" width="6.63" height="100.72" rx="2" ry="2" fill="#b6e04f"/><rect class="bar-bar" x="67.90" y="647.78" width="6.63" height="157.22" rx="2" ry="2" fill="#b6e04f"/><rect class="bar-bar" x="78.53" y="731.30" width="6.63" height="73.70" rx="2" ry="2" fill="#b6e04f"/><rect class="bar-bar" x="89.17" y="662.52" width="6.63" height="142.48" rx="2" ry="2" fill="#b6e04f"/><rect class="bar-bar" x="99.80" y="689.54" width="6.63" height="115.46" rx="2" ry="2" fill="#b6e04f"/><rect class="bar-bar" x="110.43" y="630.59" width="6.63" height="174.41" rx="2" ry="2" fill="#b6e04f"/><rect class="bar-bar" x="121.07" y="696.91" width="6.63" height="108.09" rx="2" ry="2" fill="#b6e04f"/><rect class="bar-bar" x="131.70" y="716.57" width="6.63" height="88.43" rx="2" ry="2" fill="#b6e04f"/><rect class="bar-bar" x="142.33" y="669.89" width="6.63" height="135.11" rx="2" ry="2" fill="#b6e04f"/><rect class="bar-bar" x="152.97" y="652.70" width="6.63" height="152.30" rx="2" ry="2" fill="#b6e04f"/><rect class="bar-bar" x="163.60" y="736.22" width="6.63" height="68.78" rx="2" ry="2" fill="#b6e04f"/><rect class="bar-bar" x="174.23" y="684.63" width="6.63" height="120.37" rx="2" ry="2" fill="#b6e04f"/><rect class="bar-bar" x="184.87" y="625.67" width="6.63" height="179.33" rx="2" ry="2" fill="#b6e04f"/><rect class="bar-bar" x="195.50" y="606.02" width="6.63" height="198.98" rx="2" ry="2" fill="#b6e04f"/><rect class="bar-bar" x="206.13" y="667.43" width="6.63" height="137.57" rx="2" ry="2" fill="#b6e04f"/><rect class="bar-bar" x="216.77" y="696.91" width="6.63" height="108.09" rx="2" ry="2" fill="#b6e04f"/><rect class="bar-bar" x="227.40" y="640.41" width="6.63" height="164.59" rx="2" ry="2" fill="#b6e04f"/><rect class="bar-bar" x="238.03" y="677.26" width="6.63" height="127.74" rx="2" ry="2" fill="#b6e04f"/><rect class="bar-bar" x="248.67" y="723.93" width="6.63" height="81.07" rx="2" ry="2" fill="#b6e04f"/><rect class="bar-bar" x="259.30" y="687.09" width="6.63" height="117.91" rx="2" ry="2" fill="#b6e04f"/><rect class="bar-bar" x="269.93" y="657.61" width="6.63" height="147.39" rx="2" ry="2" fill="#b6e04f"/><rect class="bar-bar" x="280.57" y="579.00" width="6.63" height="226.00" rx="2" ry="2" fill="#b6e04f"/><rect class="bar-bar" x="291.20" y="630.59" width="6.63" height="174.41" rx="2" ry="2" fill="#b6e04f"/><rect class="bar-bar" x="301.83" y="672.35" width="6.63" height="132.65" rx="2" ry="2" fill="#b6e04f"/><rect class="bar-bar" x="312.47" y="709.20" width="6.63" height="95.80" rx="2" ry="2" fill="#b6e04f"/><rect class="bar-bar" x="323.10" y="642.87" width="6.63" height="162.13" rx="2" ry="2" fill="#b6e04f"/><rect class="bar-bar" x="333.73" y="682.17" width="6.63" height="122.83" rx="2" ry="2" fill="#b6e04f"/><rect class="bar-bar" x="344.37" y="613.39" width="6.63" height="191.61" rx="2" ry="2" fill="#b6e04f"/><rect class="bar-bar" x="355.00" y="699.37" width="6.63" height="105.63" rx="2" ry="2" fill="#b6e04f"/><rect class="bar-bar" x="365.63" y="664.98" width="6.63" height="140.02" rx="2" ry="2" fill="#b6e04f"/><rect class="bar-bar" x="376.27" y="684.63" width="6.63" height="120.37" rx="2" ry="2" fill="#b6e04f"/><rect class="bar-bar" x="386.90" y="633.04" width="6.63" height="171.96" rx="2" ry="2" fill="#b6e04f"/><rect class="bar-bar" x="397.53" y="719.02" width="6.63" height="85.98" rx="2" ry="2" fill="#b6e04f"/><rect class="bar-bar" x="408.17" y="652.70" width="6.63" height="152.30" rx="2" ry="2" fill="#b6e04f"/><rect class="bar-bar" x="418.80" y="687.09" width="6.63" height="117.91" rx="2" ry="2" fill="#b6e04f"/><rect class="bar-bar" x="429.43" y="606.02" width="6.63" height="198.98" rx="2" ry="2" fill="#b6e04f"/><rect class="bar-bar" x="440.07" y="667.43" width="6.63" height="137.57" rx="2" ry="2" fill="#b6e04f"/><rect class="bar-bar" x="450.70" y="696.91" width="6.63" height="108.09" rx="2" ry="2" fill="#b6e04f"/><rect class="bar-bar" x="461.33" y="642.87" width="6.63" height="162.13" rx="2" ry="2" fill="#b6e04f"/><rect class="bar-bar" x="471.97" y="682.17" width="6.63" height="122.83" rx="2" ry="2" fill="#b6e04f"/><rect class="bar-bar" x="482.60" y="711.65" width="6.63" height="93.35" rx="2" ry="2" fill="#b6e04f"/><rect class="bar-bar" x="493.23" y="628.13" width="6.63" height="176.87" rx="2" ry="2" fill="#b6e04f"/><rect class="bar-bar" x="503.87" y="660.07" width="6.63" height="144.93" rx="2" ry="2" fill="#b6e04f"/><rect class="bar-bar" x="514.50" y="689.54" width="6.63" height="115.46" rx="2" ry="2" fill="#b6e04f"/><rect class="bar-bar" x="525.13" y="647.78" width="6.63" height="157.22" rx="2" ry="2" fill="#b6e04f"/><rect class="bar-bar" x="535.77" y="679.72" width="6.63" height="125.28" rx="2" ry="2" fill="#b6e04f"/><rect class="bar-bar" x="546.40" y="701.83" width="6.63" height="103.17" rx="2" ry="2" fill="#b6e04f"/><rect class="bar-bar" x="557.03" y="620.76" width="6.63" height="184.24" rx="2" ry="2" fill="#b6e04f"/><rect class="bar-bar" x="567.67" y="662.52" width="6.63" height="142.48" rx="2" ry="2" fill="#b6e04f"/><rect class="bar-bar" x="578.30" y="692.00" width="6.63" height="113.00" rx="2" ry="2" fill="#b6e04f"/><rect class="bar-bar" x="588.93" y="635.50" width="6.63" height="169.50" rx="2" ry="2" fill="#b6e04f"/><rect class="bar-bar" x="599.57" y="674.80" width="6.63" height="130.20" rx="2" ry="2" fill="#b6e04f"/><rect class="bar-bar" x="610.20" y="704.28" width="6.63" height="100.72" rx="2" ry="2" fill="#b6e04f"/><rect class="bar-bar" x="620.83" y="647.78" width="6.63" height="157.22" rx="2" ry="2" fill="#b6e04f"/><rect class="bar-bar" x="631.47" y="682.17" width="6.63" height="122.83" rx="2" ry="2" fill="#b6e04f"/><rect class="bar-bar" x="642.10" y="628.13" width="6.63" height="176.87" rx="2" ry="2" fill="#b6e04f"/><rect class="bar-bar" x="652.73" y="660.07" width="6.63" height="144.93" rx="2" ry="2" fill="#b6e04f"/><rect class="bar-bar" x="663.37" y="689.54" width="6.63" height="115.46" rx="2" ry="2" fill="#b6e04f"/><line x1="36" y1="823" x2="670" y2="823" stroke="rgba(148,163,184,0.08)" stroke-width="1" stroke-dasharray="3 3"/><text x="36.00" y="833" text-anchor="start" fill="#3f4753" font-size="11" font-family='"JetBrains Mono", ui-monospace, SFMono-Regular, Menlo, Consolas, monospace' letter-spacing="0.88" text-transform="uppercase">60d</text><text x="194.50" y="833" text-anchor="middle" fill="#3f4753" font-size="11" font-family='"JetBrains Mono", ui-monospace, SFMono-Regular, Menlo, Consolas, monospace' letter-spacing="0.88" text-transform="uppercase">45d</text><text x="353.00" y="833" text-anchor="middle" fill="#3f4753" font-size="11" font-family='"JetBrains Mono", ui-monospace, SFMono-Regular, Menlo, Consolas, monospace' letter-spacing="0.88" text-transform="uppercase">30d</text><text x="511.50" y="833" text-anchor="middle" fill="#3f4753" font-size="11" font-family='"JetBrains Mono", ui-monospace, SFMono-Regular, Menlo, Consolas, monospace' letter-spacing="0.88" text-transform="uppercase">15d</text><text x="670.00" y="833" text-anchor="end" fill="#3f4753" font-size="11" font-family='"JetBrains Mono", ui-monospace, SFMono-Regular, Menlo, Consolas, monospace' letter-spacing="0.88" text-transform="uppercase">today</text>
  <g class="panel" data-label="stats">
  <rect x="706" y="499" width="780" height="354" rx="9" ry="9"
        fill="rgba(255,255,255,0.012)" stroke="rgba(148,163,184,0.10)" stroke-width="1"/>
  <text x="728" y="527" fill="#5a6473" font-size="11.5"
        font-family='"JetBrains Mono", ui-monospace, SFMono-Regular, Menlo, Consolas, monospace' font-weight="600" letter-spacing="1.6"
        text-transform="uppercase">STATS</text>
  <text x="1464" y="527" text-anchor="end" fill="#3f4753"
        font-size="11.5" font-family='"JetBrains Mono", ui-monospace, SFMono-Regular, Menlo, Consolas, monospace' font-weight="500"
        letter-spacing="1.4" text-transform="uppercase">● LIVE</text>
</g><text x="728" y="559" fill="#cdd6e1" font-size="13" font-family='"JetBrains Mono", ui-monospace, SFMono-Regular, Menlo, Consolas, monospace'>repos</text><text x="1464" y="559" text-anchor="end" fill="#cdd6e1" font-size="13" font-family='"JetBrains Mono", ui-monospace, SFMono-Regular, Menlo, Consolas, monospace' font-variant-numeric="tabular-nums">42</text><line x1="728" y1="567" x2="1464" y2="567" stroke="rgba(148,163,184,0.06)" stroke-width="1" stroke-dasharray="1 4"/><text x="728" y="585" fill="#cdd6e1" font-size="13" font-family='"JetBrains Mono", ui-monospace, SFMono-Regular, Menlo, Consolas, monospace'>stars</text><text x="1464" y="585" text-anchor="end" fill="#cdd6e1" font-size="13" font-family='"JetBrains Mono", ui-monospace, SFMono-Regular, Menlo, Consolas, monospace' font-variant-numeric="tabular-nums">214<tspan fill="#f1c47a" dx="6">★</tspan></text><line x1="728" y1="593" x2="1464" y2="593" stroke="rgba(148,163,184,0.06)" stroke-width="1" stroke-dasharray="1 4"/><text x="728" y="611" fill="#cdd6e1" font-size="13" font-family='"JetBrains Mono", ui-monospace, SFMono-Regular, Menlo, Consolas, monospace'>followers</text><text x="1464" y="611" text-anchor="end" fill="#cdd6e1" font-size="13" font-family='"JetBrains Mono", ui-monospace, SFMono-Regular, Menlo, Consolas, monospace' font-variant-numeric="tabular-nums">89</text><line x1="728" y1="619" x2="1464" y2="619" stroke="rgba(148,163,184,0.06)" stroke-width="1" stroke-dasharray="1 4"/><text x="728" y="637" fill="#cdd6e1" font-size="13" font-family='"JetBrains Mono", ui-monospace, SFMono-Regular, Menlo, Consolas, monospace'>commits</text><text x="1464" y="637" text-anchor="end" fill="#cdd6e1" font-size="13" font-family='"JetBrains Mono", ui-monospace, SFMono-Regular, Menlo, Consolas, monospace' font-variant-numeric="tabular-nums">3,128</text><line x1="728" y1="645" x2="1464" y2="645" stroke="rgba(148,163,184,0.06)" stroke-width="1" stroke-dasharray="1 4"/><text x="728" y="663" fill="#cdd6e1" font-size="13" font-family='"JetBrains Mono", ui-monospace, SFMono-Regular, Menlo, Consolas, monospace'>loc</text><text x="1464" y="663" text-anchor="end" fill="#cdd6e1" font-size="13" font-family='"JetBrains Mono", ui-monospace, SFMono-Regular, Menlo, Consolas, monospace' font-variant-numeric="tabular-nums">241k</text><line x1="728" y1="693" x2="1464" y2="693" stroke="rgba(148,163,184,0.10)" stroke-width="1" stroke-dasharray="3 3"/><text x="728" y="707" fill="#5a6473" font-size="11.5" font-family='"JetBrains Mono", ui-monospace, SFMono-Regular, Menlo, Consolas, monospace' letter-spacing="1.6" text-transform="uppercase">top repos</text><text x="1464" y="707" text-anchor="end" fill="#3f4753" font-size="11.5" font-family='"JetBrains Mono", ui-monospace, SFMono-Regular, Menlo, Consolas, monospace' font-weight="500" letter-spacing="1.4" text-transform="uppercase">by ★</text><text x="728" y="729" fill="#cdd6e1" font-size="13" font-family='"JetBrains Mono", ui-monospace, SFMono-Regular, Menlo, Consolas, monospace'>static-rs</text><text x="1384" y="729" text-anchor="end" fill="#8b95a3" font-size="12" font-family='"JetBrains Mono", ui-monospace, SFMono-Regular, Menlo, Consolas, monospace'>rust</text><text x="1464" y="729" text-anchor="end" fill="#f1c47a" font-size="13" font-family='"JetBrains Mono", ui-monospace, SFMono-Regular, Menlo, Consolas, monospace' font-variant-numeric="tabular-nums">★ 84</text><text x="728" y="751" fill="#cdd6e1" font-size="13" font-family='"JetBrains Mono", ui-monospace, SFMono-Regular, Menlo, Consolas, monospace'>tinybuf</text><text x="1384" y="751" text-anchor="end" fill="#8b95a3" font-size="12" font-family='"JetBrains Mono", ui-monospace, SFMono-Regular, Menlo, Consolas, monospace'>go</text><text x="1464" y="751" text-anchor="end" fill="#f1c47a" font-size="13" font-family='"JetBrains Mono", ui-monospace, SFMono-Regular, Menlo, Consolas, monospace' font-variant-numeric="tabular-nums">★ 51</text><text x="728" y="773" fill="#cdd6e1" font-size="13" font-family='"JetBrains Mono", ui-monospace, SFMono-Regular, Menlo, Consolas, monospace'>dotfiles</text><text x="1384" y="773" text-anchor="end" fill="#8b95a3" font-size="12" font-family='"JetBrains Mono", ui-monospace, SFMono-Regular, Menlo, Consolas, monospace'>lua</text><text x="1464" y="773" text-anchor="end" fill="#f1c47a" font-size="13" font-family='"JetBrains Mono", ui-monospace, SFMono-Regular, Menlo, Consolas, monospace' font-variant-numeric="tabular-nums">★ 37</text>
  <g class="panel" data-label="now">
  <rect x="14" y="867" width="1472" height="106" rx="9" ry="9"
        fill="rgba(255,255,255,0.012)" stroke="rgba(148,163,184,0.10)" stroke-width="1"/>
  <text x="36" y="895" fill="#5a6473" font-size="11.5"
        font-family='"JetBrains Mono", ui-monospace, SFMono-Regular, Menlo, Consolas, monospace' font-weight="600" letter-spacing="1.6"
        text-transform="uppercase">NOW</text>
  <text x="1464" y="895" text-anchor="end" fill="#3f4753"
        font-size="11.5" font-family='"JetBrains Mono", ui-monospace, SFMono-Regular, Menlo, Consolas, monospace' font-weight="500"
        letter-spacing="1.4" text-transform="uppercase">/etc/8enji.conf</text>
</g><text x="36" y="937" fill="#c8a2ff" font-size="14" font-family='"JetBrains Mono", ui-monospace, SFMono-Regular, Menlo, Consolas, monospace'>building</text><text x="146" y="937" fill="#cdd6e1" font-size="14" font-family='"JetBrains Mono", ui-monospace, SFMono-Regular, Menlo, Consolas, monospace'>a tiny static-site engine in rust</text><text x="770" y="937" fill="#c8a2ff" font-size="14" font-family='"JetBrains Mono", ui-monospace, SFMono-Regular, Menlo, Consolas, monospace'>learning</text><text x="880" y="937" fill="#cdd6e1" font-size="14" font-family='"JetBrains Mono", ui-monospace, SFMono-Regular, Menlo, Consolas, monospace'>zig · webgpu · papermaking</text><line x1="36" y1="949" x2="730" y2="949" stroke="rgba(148,163,184,0.06)" stroke-width="1" stroke-dasharray="1 4"/><line x1="770" y1="949" x2="1464" y2="949" stroke="rgba(148,163,184,0.06)" stroke-width="1" stroke-dasharray="1 4"/><text x="36" y="967" fill="#c8a2ff" font-size="14" font-family='"JetBrains Mono", ui-monospace, SFMono-Regular, Menlo, Consolas, monospace'>listening</text><text x="146" y="967" fill="#cdd6e1" font-size="14" font-family='"JetBrains Mono", ui-monospace, SFMono-Regular, Menlo, Consolas, monospace'>tycho — awake (vinyl rip)</text><text x="770" y="967" fill="#c8a2ff" font-size="14" font-family='"JetBrains Mono", ui-monospace, SFMono-Regular, Menlo, Consolas, monospace'>reach</text><text x="880" y="967" fill="#cdd6e1" font-size="14" font-family='"JetBrains Mono", ui-monospace, SFMono-Regular, Menlo, Consolas, monospace'>@8enji · ben@bencharest.com</text>
  <g class="statusbar">
  <line x1="0" y1="987" x2="1500" y2="987" stroke="rgba(255,255,255,0.05)" stroke-width="1"/>
  <circle cx="26" cy="1005" r="3" fill="#b6e04f"/>
  <text x="38" y="1009" fill="#3f4753" font-size="11.5" font-family='"JetBrains Mono", ui-monospace, SFMono-Regular, Menlo, Consolas, monospace' letter-spacing="1.4">CPU 4%</text>
  <text x="152" y="1009" fill="#3f4753" font-size="11.5" font-family='"JetBrains Mono", ui-monospace, SFMono-Regular, Menlo, Consolas, monospace' letter-spacing="1.4">MEM 412mb</text>
  <text x="262" y="1009" fill="#3f4753" font-size="11.5" font-family='"JetBrains Mono", ui-monospace, SFMono-Regular, Menlo, Consolas, monospace' letter-spacing="1.4">NET ▲ 1.2mb/s</text>
  <text x="1238" y="1009" fill="#3f4753" font-size="11.5" font-family='"JetBrains Mono", ui-monospace, SFMono-Regular, Menlo, Consolas, monospace' letter-spacing="1.4">v2.6.0</text>
  <text x="1348" y="1009" fill="#3f4753" font-size="11.5" font-family='"JetBrains Mono", ui-monospace, SFMono-Regular, Menlo, Consolas, monospace' letter-spacing="1.4">UTF-8</text>
  <text x="1408" y="1009" fill="#3f4753" font-size="11.5" font-family='"JetBrains Mono", ui-monospace, SFMono-Regular, Menlo, Consolas, monospace' letter-spacing="1.4">NOR</text>
  <text x="1478" y="1009" text-anchor="end" fill="#3f4753" font-size="11.5" font-family='"JetBrains Mono", ui-monospace, SFMono-Regular, Menlo, Consolas, monospace' letter-spacing="1.4">20:41:46</text>
</g>
</svg>